<svg xmlns="http://www.w3.org/2000/svg" id="Layer_1" data-name="Layer 1" viewBox="0 0 182.2 233.48"><defs><style>.cls-1,.cls-2{stroke:#141515;stroke-miterlimit:10;stroke-width:.57px}.cls-2{fill:#fd7001}.cls-1,.cls-3{fill-rule:evenodd;fill:#fd7001}</style></defs><title>Smile</title><path d="M340.37,369.43a16.15,16.15,0,0,1-16.18-16.15v-.51H307.66v.51a32.7,32.7,0,0,0,65.41,0v-.51H356.55v.51a16.15,16.15,0,0,1-16.18,16.15Z" class="cls-1" transform="translate(-248.32 -194.2)"/><rect width="45.63" height="15.87" x="98.73" y="84.02" class="cls-2"/><path d="M269,245.15c45.43-14.41,62.66-23.35,70.47-27.74,7.78,4.4,25,13.33,70.44,27.74,0,5.14,2.89,161.85-70.44,161.7C266.1,407,269,250.28,269,245.15Zm70.47,182.54c94.8.2,91.08-191,91.08-197.61-58.72-18.64-81-30.19-91.08-35.87-10.06,5.68-32.39,17.24-91.08,35.87,0,6.62-3.72,197.81,91.08,197.61Z" class="cls-3" transform="translate(-248.32 -194.2)"/><path d="M308.66,263.18a23.56,23.56,0,1,0,23.58,23.54,23.58,23.58,0,0,0-23.58-23.54Zm-7.49,23.54a7.48,7.48,0,1,1,7.49,7.48,7.47,7.47,0,0,1-7.49-7.48Z" class="cls-1" transform="translate(-248.32 -194.2)"/></svg>